<?xml version="1.0" encoding="UTF-8"?>
<!DOCTYPE svg PUBLIC "-//W3C//DTD SVG 1.1//EN" "http://www.w3.org/Graphics/SVG/1.1/DTD/svg11.dtd">
<svg xmlns="http://www.w3.org/2000/svg" version="1.1" width="512px" height="512px" style="shape-rendering:geometricPrecision; text-rendering:geometricPrecision; image-rendering:optimizeQuality; fill-rule:evenodd; clip-rule:evenodd" xmlns:xlink="http://www.w3.org/1999/xlink">
<g><path style="opacity:1" fill="#d3bea6" d="M 318.5,65.5 C 299.377,64.5545 280.044,63.7211 260.5,63C 259.5,62.6667 258.5,62.3333 257.5,62C 256.993,59.8595 257.493,58.0262 259,56.5C 255.065,57.1378 251.231,57.8045 247.5,58.5C 247.167,58.5 246.833,58.5 246.5,58.5C 238.06,44.5634 225.727,38.3968 209.5,40C 206.966,40.5163 204.8,41.683 203,43.5C 200.579,47.8506 199.412,52.5172 199.5,57.5C 199.672,58.4916 199.338,59.1583 198.5,59.5C 198.5,58.1667 198.5,56.8333 198.5,55.5C 194.466,55.4955 190.466,55.1621 186.5,54.5C 186.547,40.3144 193.547,31.1478 207.5,27C 225.309,24.4886 240.143,29.9886 252,43.5C 254.833,47 257.667,50.5 260.5,54C 269.175,54.5368 277.841,54.3701 286.5,53.5C 299.14,52.6447 309.807,56.6447 318.5,65.5 Z"/></g>
<g><path style="opacity:1" fill="#f0d6b7" d="M 246.5,58.5 C 245.036,59.1599 243.369,59.4932 241.5,59.5C 227.51,58.6115 213.51,57.9448 199.5,57.5C 199.412,52.5172 200.579,47.8506 203,43.5C 204.8,41.683 206.966,40.5163 209.5,40C 225.727,38.3968 238.06,44.5634 246.5,58.5 Z"/></g>
<g><path style="opacity:1" fill="#bda388" d="M 186.5,54.5 C 190.466,55.1621 194.466,55.4955 198.5,55.5C 198.5,56.8333 198.5,58.1667 198.5,59.5C 198.5,59.8333 198.5,60.1667 198.5,60.5C 198.553,66.038 199.553,71.3713 201.5,76.5C 201.5,78.5 201.5,80.5 201.5,82.5C 197.12,81.7066 192.786,80.7066 188.5,79.5C 187.817,76.3181 186.817,72.8181 185.5,69C 186.683,66.8449 186.35,64.8449 184.5,63C 185.143,60.4827 185.809,57.6493 186.5,54.5 Z"/></g>
<g><path style="opacity:1" fill="#d8b996" d="M 198.5,60.5 C 199.461,62.2646 199.795,64.2646 199.5,66.5C 217.49,67.3997 235.49,68.233 253.5,69C 254.059,69.7247 254.392,70.5581 254.5,71.5C 254.036,74.3493 253.369,77.016 252.5,79.5C 252.082,78.7784 251.416,78.2784 250.5,78C 234.174,77.1936 217.841,76.6936 201.5,76.5C 199.553,71.3713 198.553,66.038 198.5,60.5 Z"/></g>
<g><path style="opacity:1" fill="#e6caa9" d="M 199.5,57.5 C 213.51,57.9448 227.51,58.6115 241.5,59.5C 243.369,59.4932 245.036,59.1599 246.5,58.5C 246.833,58.5 247.167,58.5 247.5,58.5C 249.342,62.5076 252.342,65.3409 256.5,67C 271.221,67.0675 285.888,67.7341 300.5,69C 307.595,71.7103 312.595,76.5436 315.5,83.5C 313.866,84.1611 312.033,84.4944 310,84.5C 291.267,83.6315 272.6,82.6315 254,81.5C 253.722,82.4158 253.222,83.0825 252.5,83.5C 252.5,82.1667 252.5,80.8333 252.5,79.5C 253.369,77.016 254.036,74.3493 254.5,71.5C 254.392,70.5581 254.059,69.7247 253.5,69C 235.49,68.233 217.49,67.3997 199.5,66.5C 199.795,64.2646 199.461,62.2646 198.5,60.5C 198.5,60.1667 198.5,59.8333 198.5,59.5C 199.338,59.1583 199.672,58.4916 199.5,57.5 Z"/></g>
<g><path style="opacity:1" fill="#c56d1f" d="M 188.5,79.5 C 192.786,80.7066 197.12,81.7066 201.5,82.5C 201.5,82.8333 201.5,83.1667 201.5,83.5C 197.195,90.7654 192.862,98.0987 188.5,105.5C 180.167,118.833 171.833,132.167 163.5,145.5C 162.859,144.518 162.193,143.518 161.5,142.5C 164.254,141.237 163.92,139.404 160.5,137C 160.848,134.945 160.181,132.945 158.5,131C 159.582,129.67 160.249,128.17 160.5,126.5C 170.195,110.605 179.528,94.9379 188.5,79.5 Z"/></g>
<g><path style="opacity:1" fill="#cba981" d="M 201.5,76.5 C 217.841,76.6936 234.174,77.1936 250.5,78C 251.416,78.2784 252.082,78.7784 252.5,79.5C 252.5,80.8333 252.5,82.1667 252.5,83.5C 251.597,86.3915 251.264,89.3915 251.5,92.5C 250.523,95.2869 250.19,98.2869 250.5,101.5C 240.059,96.9084 229.392,92.9084 218.5,89.5C 213.199,86.7313 207.532,84.7313 201.5,83.5C 201.5,83.1667 201.5,82.8333 201.5,82.5C 201.5,80.5 201.5,78.5 201.5,76.5 Z"/></g>
<g><path style="opacity:1" fill="#e37511" d="M 201.5,83.5 C 207.532,84.7313 213.199,86.7313 218.5,89.5C 217.761,89.369 217.094,89.5357 216.5,90C 260.792,147.779 304.459,205.946 347.5,264.5C 338.631,267.957 329.631,271.124 320.5,274C 305.934,281.45 291.267,288.617 276.5,295.5C 272.666,289.176 268.333,283.176 263.5,277.5C 269.141,274.024 273.641,269.357 277,263.5C 278.756,258.203 278.923,252.87 277.5,247.5C 279.633,237.232 278.299,227.565 273.5,218.5C 269.635,209.3 263.301,202.3 254.5,197.5C 253.312,196.636 252.145,195.636 251,194.5C 250.825,189.981 250.325,185.647 249.5,181.5C 245.398,158.635 232.398,143.301 210.5,135.5C 204.141,124.781 196.808,114.781 188.5,105.5C 192.862,98.0987 197.195,90.7654 201.5,83.5 Z"/></g>
<g><path style="opacity:1" fill="#dcbe9b" d="M 315.5,83.5 C 318.744,87.6507 321.744,91.9841 324.5,96.5C 300.282,94.2636 275.948,92.9303 251.5,92.5C 251.264,89.3915 251.597,86.3915 252.5,83.5C 253.222,83.0825 253.722,82.4158 254,81.5C 272.6,82.6315 291.267,83.6315 310,84.5C 312.033,84.4944 313.866,84.1611 315.5,83.5 Z"/></g>
<g><path style="opacity:1" fill="#e1710a" d="M 218.5,89.5 C 229.392,92.9084 240.059,96.9084 250.5,101.5C 253.686,102.597 256.686,103.93 259.5,105.5C 256.093,105.125 255.593,106.125 258,108.5C 294.384,155.883 330.384,203.55 366,251.5C 367.371,253.041 368.871,254.375 370.5,255.5C 362.983,258.676 355.316,261.676 347.5,264.5C 304.459,205.946 260.792,147.779 216.5,90C 217.094,89.5357 217.761,89.369 218.5,89.5 Z"/></g>
<g><path style="opacity:0.997" fill="#d1b18b" d="M 251.5,92.5 C 275.948,92.9303 300.282,94.2636 324.5,96.5C 322.413,102.598 321.08,108.932 320.5,115.5C 320.167,116.167 319.833,116.833 319.5,117.5C 307.574,116.517 295.574,115.85 283.5,115.5C 275.5,112.167 267.5,108.833 259.5,105.5C 256.686,103.93 253.686,102.597 250.5,101.5C 250.19,98.2869 250.523,95.2869 251.5,92.5 Z"/></g>
<g><path style="opacity:1" fill="#cdb69d" d="M 318.5,65.5 C 323.047,70.2366 326.88,75.57 330,81.5C 333.515,87.022 338.515,90.022 345,90.5C 370.535,82.2325 390.202,89.5658 404,112.5C 404.847,114.854 405.68,117.188 406.5,119.5C 406.631,120.239 406.464,120.906 406,121.5C 405.009,120.061 403.676,119.061 402,118.5C 401.667,119.167 401.333,119.833 401,120.5C 399,119.833 397,119.167 395,118.5C 394.283,119.044 393.783,119.711 393.5,120.5C 392.833,119.833 392.167,119.167 391.5,118.5C 382.494,102.506 369.16,97.3396 351.5,103C 346.833,103.667 342.167,103.667 337.5,103C 332.834,101.334 328.501,99.1673 324.5,96.5C 321.744,91.9841 318.744,87.6507 315.5,83.5C 312.595,76.5436 307.595,71.7103 300.5,69C 285.888,67.7341 271.221,67.0675 256.5,67C 252.342,65.3409 249.342,62.5076 247.5,58.5C 251.231,57.8045 255.065,57.1378 259,56.5C 257.493,58.0262 256.993,59.8595 257.5,62C 258.5,62.3333 259.5,62.6667 260.5,63C 280.044,63.7211 299.377,64.5545 318.5,65.5 Z"/></g>
<g><path style="opacity:1" fill="#de6c02" d="M 259.5,105.5 C 267.5,108.833 275.5,112.167 283.5,115.5C 295.048,121.441 306.714,127.107 318.5,132.5C 321.976,135.623 325.976,137.957 330.5,139.5C 336.13,143.654 342.13,147.321 348.5,150.5C 364.656,161.08 380.99,171.413 397.5,181.5C 406.2,188.19 415.2,194.523 424.5,200.5C 435.167,208.5 445.833,216.5 456.5,224.5C 455.833,224.5 455.5,224.833 455.5,225.5C 427.264,235.785 398.93,245.785 370.5,255.5C 368.871,254.375 367.371,253.041 366,251.5C 330.384,203.55 294.384,155.883 258,108.5C 255.593,106.125 256.093,105.125 259.5,105.5 Z"/></g>
<g><path style="opacity:1" fill="#e5c9a8" d="M 324.5,96.5 C 328.501,99.1673 332.834,101.334 337.5,103C 342.167,103.667 346.833,103.667 351.5,103C 369.16,97.3396 382.494,102.506 391.5,118.5C 367.862,117.101 344.195,116.101 320.5,115.5C 321.08,108.932 322.413,102.598 324.5,96.5 Z"/></g>
<g><path style="opacity:1" fill="#dcbe9b" d="M 320.5,115.5 C 344.195,116.101 367.862,117.101 391.5,118.5C 392.167,119.167 392.833,119.833 393.5,120.5C 394.5,123.833 395.5,127.167 396.5,130.5C 393.991,129.887 391.491,129.22 389,128.5C 388.667,128.833 388.333,129.167 388,129.5C 364.851,127.542 341.684,126.875 318.5,127.5C 318.616,124.14 318.949,120.807 319.5,117.5C 319.833,116.833 320.167,116.167 320.5,115.5 Z"/></g>
<g><path style="opacity:1" fill="#c39f76" d="M 283.5,115.5 C 295.574,115.85 307.574,116.517 319.5,117.5C 318.949,120.807 318.616,124.14 318.5,127.5C 318.5,129.167 318.5,130.833 318.5,132.5C 306.714,127.107 295.048,121.441 283.5,115.5 Z"/></g>
<g><path style="opacity:1" fill="#e67b1b" d="M 188.5,105.5 C 196.808,114.781 204.141,124.781 210.5,135.5C 206.172,133.997 201.838,132.83 197.5,132C 198.373,133.045 199.373,133.878 200.5,134.5C 212.5,152.269 207.833,162.436 186.5,165C 178.1,165.925 169.766,167.258 161.5,169C 155.748,170.711 150.414,173.211 145.5,176.5C 150.758,165.716 156.758,155.383 163.5,145.5C 171.833,132.167 180.167,118.833 188.5,105.5 Z"/></g>
<g><path style="opacity:1" fill="#bba286" d="M 406.5,119.5 C 408.405,123.216 409.739,127.216 410.5,131.5C 409.06,136.512 407.06,141.179 404.5,145.5C 403.167,144.167 401.833,142.833 400.5,141.5C 399.179,137.874 397.846,134.207 396.5,130.5C 395.5,127.167 394.5,123.833 393.5,120.5C 393.783,119.711 394.283,119.044 395,118.5C 397,119.167 399,119.833 401,120.5C 401.333,119.833 401.667,119.167 402,118.5C 403.676,119.061 405.009,120.061 406,121.5C 406.464,120.906 406.631,120.239 406.5,119.5 Z"/></g>
<g><path style="opacity:1" fill="#d3b38d" d="M 396.5,130.5 C 397.846,134.207 399.179,137.874 400.5,141.5C 399.903,142.139 399.07,142.472 398,142.5C 375.522,141.154 353.022,140.154 330.5,139.5C 325.976,137.957 321.976,135.623 318.5,132.5C 318.5,130.833 318.5,129.167 318.5,127.5C 341.684,126.875 364.851,127.542 388,129.5C 388.333,129.167 388.667,128.833 389,128.5C 391.491,129.22 393.991,129.887 396.5,130.5 Z"/></g>
<g><path style="opacity:1" fill="#fcf0e3" d="M 202.5,134.5 C 207.699,139.215 211.032,145.048 212.5,152C 207.045,172.919 194.378,187.586 174.5,196C 162.046,201.206 149.379,205.706 136.5,209.5C 135.725,204.203 135.392,198.87 135.5,193.5C 137.018,186.802 140.351,181.135 145.5,176.5C 150.414,173.211 155.748,170.711 161.5,169C 169.766,167.258 178.1,165.925 186.5,165C 207.833,162.436 212.5,152.269 200.5,134.5C 200.938,133.494 201.604,133.494 202.5,134.5 Z"/></g>
<g><path style="opacity:1" fill="#fae1c4" d="M 210.5,135.5 C 232.398,143.301 245.398,158.635 249.5,181.5C 249.851,187.262 249.351,192.928 248,198.5C 238.649,215.618 224.816,227.785 206.5,235C 183.841,241.604 161.841,249.437 140.5,258.5C 132.877,258.854 126.543,256.187 121.5,250.5C 114.057,238.542 115.057,227.376 124.5,217C 128.393,214.983 132.393,213.483 136.5,212.5C 147.003,212.667 157.503,213 168,213.5C 188.052,214.472 204.719,207.472 218,192.5C 227.789,177.223 227.789,161.89 218,146.5C 213.795,141.113 208.628,137.113 202.5,134.5C 201.604,133.494 200.938,133.494 200.5,134.5C 199.373,133.878 198.373,133.045 197.5,132C 201.838,132.83 206.172,133.997 210.5,135.5 Z"/></g>
<g><path style="opacity:1" fill="#eed3b3" d="M 202.5,134.5 C 208.628,137.113 213.795,141.113 218,146.5C 227.789,161.89 227.789,177.223 218,192.5C 204.719,207.472 188.052,214.472 168,213.5C 157.503,213 147.003,212.667 136.5,212.5C 136.918,211.778 137.584,211.278 138.5,211C 137.584,210.722 136.918,210.222 136.5,209.5C 149.379,205.706 162.046,201.206 174.5,196C 194.378,187.586 207.045,172.919 212.5,152C 211.032,145.048 207.699,139.215 202.5,134.5 Z"/></g>
<g><path style="opacity:1" fill="#caa881" d="M 330.5,139.5 C 353.022,140.154 375.522,141.154 398,142.5C 399.07,142.472 399.903,142.139 400.5,141.5C 401.833,142.833 403.167,144.167 404.5,145.5C 404.5,146.167 404.5,146.833 404.5,147.5C 403.833,149.5 403.167,151.5 402.5,153.5C 384.622,151.449 366.622,150.449 348.5,150.5C 342.13,147.321 336.13,143.654 330.5,139.5 Z"/></g>
<g><path style="opacity:1" fill="#d1bca3" d="M 410.5,131.5 C 414.122,138.832 420.122,142.999 428.5,144C 438.378,144.519 448.211,144.019 458,142.5C 469.484,142.243 478.817,146.576 486,155.5C 487.094,157.078 487.928,158.745 488.5,160.5C 484.427,162.135 480.094,163.135 475.5,163.5C 471.655,159.493 466.988,156.993 461.5,156C 449.226,157.258 436.893,157.591 424.5,157C 417.122,155.143 410.456,151.976 404.5,147.5C 404.5,146.833 404.5,146.167 404.5,145.5C 407.06,141.179 409.06,136.512 410.5,131.5 Z"/></g>
<g><path style="opacity:1" fill="#c39f76" d="M 348.5,150.5 C 366.622,150.449 384.622,151.449 402.5,153.5C 401.031,158.72 400.364,164.054 400.5,169.5C 399.539,171.265 399.205,173.265 399.5,175.5C 398.833,177.5 398.167,179.5 397.5,181.5C 380.99,171.413 364.656,161.08 348.5,150.5 Z"/></g>
<g><path style="opacity:1" fill="#e9cdad" d="M 404.5,147.5 C 410.456,151.976 417.122,155.143 424.5,157C 436.893,157.591 449.226,157.258 461.5,156C 466.988,156.993 471.655,159.493 475.5,163.5C 476.942,164.82 477.608,166.486 477.5,168.5C 477.5,169.833 477.5,171.167 477.5,172.5C 451.82,171.793 426.153,170.793 400.5,169.5C 400.364,164.054 401.031,158.72 402.5,153.5C 403.167,151.5 403.833,149.5 404.5,147.5 Z"/></g>
<g><path style="opacity:1" fill="#e1c3a1" d="M 477.5,168.5 C 478.682,173.115 478.348,177.782 476.5,182.5C 450.807,181.971 425.14,180.971 399.5,179.5C 399.5,178.167 399.5,176.833 399.5,175.5C 399.205,173.265 399.539,171.265 400.5,169.5C 426.153,170.793 451.82,171.793 477.5,172.5C 477.5,171.167 477.5,169.833 477.5,168.5 Z"/></g>
<g><path style="opacity:1" fill="#c9762c" d="M 160.5,126.5 C 160.249,128.17 159.582,129.67 158.5,131C 160.181,132.945 160.848,134.945 160.5,137C 163.92,139.404 164.254,141.237 161.5,142.5C 162.193,143.518 162.859,144.518 163.5,145.5C 156.758,155.383 150.758,165.716 145.5,176.5C 140.351,181.135 137.018,186.802 135.5,193.5C 132.11,197.558 129.11,201.891 126.5,206.5C 123.833,202.833 121.167,199.167 118.5,195.5C 131.602,172.361 145.602,149.361 160.5,126.5 Z"/></g>
<g><path style="opacity:0.999" fill="#bfa68b" d="M 488.5,160.5 C 490.001,164.077 491.001,167.91 491.5,172C 490.925,178.778 489.591,185.278 487.5,191.5C 484.863,190.768 482.363,190.768 480,191.5C 479.667,190.833 479.333,190.167 479,189.5C 477.53,190.267 476.03,190.933 474.5,191.5C 475.167,188.5 475.833,185.5 476.5,182.5C 478.348,177.782 478.682,173.115 477.5,168.5C 477.608,166.486 476.942,164.82 475.5,163.5C 480.094,163.135 484.427,162.135 488.5,160.5 Z"/></g>
<g><path style="opacity:1" fill="#d6b792" d="M 399.5,175.5 C 399.5,176.833 399.5,178.167 399.5,179.5C 425.14,180.971 450.807,181.971 476.5,182.5C 475.833,185.5 475.167,188.5 474.5,191.5C 473.303,195.095 472.303,198.761 471.5,202.5C 455.861,201.461 440.194,200.794 424.5,200.5C 415.2,194.523 406.2,188.19 397.5,181.5C 398.167,179.5 398.833,177.5 399.5,175.5 Z"/></g>
<g><path style="opacity:1" fill="#edd3b3" d="M 249.5,181.5 C 250.325,185.647 250.825,189.981 251,194.5C 252.145,195.636 253.312,196.636 254.5,197.5C 253.448,197.351 252.448,197.517 251.5,198C 253.553,212.243 248.887,223.91 237.5,233C 225.184,241.989 211.518,247.989 196.5,251C 178.417,253.509 160.417,256.343 142.5,259.5C 141.833,259.167 141.167,258.833 140.5,258.5C 161.841,249.437 183.841,241.604 206.5,235C 224.816,227.785 238.649,215.618 248,198.5C 249.351,192.928 249.851,187.262 249.5,181.5 Z"/></g>
<g><path style="opacity:1" fill="#fce8d1" d="M 254.5,197.5 C 263.301,202.3 269.635,209.3 273.5,218.5C 273.893,224.678 273.06,230.678 271,236.5C 258.133,257.001 240.633,272.001 218.5,281.5C 200.262,287.867 181.928,288.034 163.5,282C 153.194,277.529 146.194,270.029 142.5,259.5C 160.417,256.343 178.417,253.509 196.5,251C 211.518,247.989 225.184,241.989 237.5,233C 248.887,223.91 253.553,212.243 251.5,198C 252.448,197.517 253.448,197.351 254.5,197.5 Z"/></g>
<g><path style="opacity:1" fill="#c9a67e" d="M 424.5,200.5 C 440.194,200.794 455.861,201.461 471.5,202.5C 469.347,207.961 468.014,213.628 467.5,219.5C 464.291,221.934 460.624,223.601 456.5,224.5C 445.833,216.5 435.167,208.5 424.5,200.5 Z"/></g>
<g><path style="opacity:1" fill="#b09376" d="M 487.5,191.5 C 485.5,199.167 483.5,206.833 481.5,214.5C 477.303,216.645 472.969,218.645 468.5,220.5C 468.5,219.833 468.167,219.5 467.5,219.5C 468.014,213.628 469.347,207.961 471.5,202.5C 472.303,198.761 473.303,195.095 474.5,191.5C 476.03,190.933 477.53,190.267 479,189.5C 479.333,190.167 479.667,190.833 480,191.5C 482.363,190.768 484.863,190.768 487.5,191.5 Z"/></g>
<g><path style="opacity:1" fill="#937761" d="M 481.5,214.5 C 479.588,227.898 477.922,241.231 476.5,254.5C 476.719,253.325 476.386,252.325 475.5,251.5C 473.409,252.058 471.242,252.391 469,252.5C 467.739,252.241 466.739,251.574 466,250.5C 465.333,243.833 465.333,237.167 466,230.5C 466.026,226.861 466.86,223.528 468.5,220.5C 472.969,218.645 477.303,216.645 481.5,214.5 Z"/></g>
<g><path style="opacity:1" fill="#d9bfa3" d="M 273.5,218.5 C 278.299,227.565 279.633,237.232 277.5,247.5C 273.89,261.947 264.89,271.447 250.5,276C 239.993,278.742 229.326,280.575 218.5,281.5C 240.633,272.001 258.133,257.001 271,236.5C 273.06,230.678 273.893,224.678 273.5,218.5 Z"/></g>
<g><path style="opacity:1" fill="#883f0e" d="M 455.5,225.5 C 454.806,230.805 454.472,236.138 454.5,241.5C 425.961,252.434 397.628,263.934 369.5,276C 316.001,291.091 264.001,310.091 213.5,333C 205.825,340.172 197.159,345.838 187.5,350C 144.652,352.236 103.319,361.236 63.5,377C 55.9777,379.298 48.3111,380.798 40.5,381.5C 39.9578,376.063 39.9578,371.063 40.5,366.5C 36.6286,366.815 32.9619,366.482 29.5,365.5C 33.1667,365.5 36.8333,365.5 40.5,365.5C 61.4296,363.601 81.4296,358.268 100.5,349.5C 108.442,347.462 116.442,345.795 124.5,344.5C 137.183,342.912 149.517,339.912 161.5,335.5C 179.43,328.747 197.43,322.414 215.5,316.5C 236.795,312.099 257.128,305.099 276.5,295.5C 291.267,288.617 305.934,281.45 320.5,274C 329.631,271.124 338.631,267.957 347.5,264.5C 355.316,261.676 362.983,258.676 370.5,255.5C 398.93,245.785 427.264,235.785 455.5,225.5 Z"/></g>
<g><path style="opacity:1" fill="#ed8933" d="M 135.5,193.5 C 135.392,198.87 135.725,204.203 136.5,209.5C 136.918,210.222 137.584,210.722 138.5,211C 137.584,211.278 136.918,211.778 136.5,212.5C 132.393,213.483 128.393,214.983 124.5,217C 115.057,227.376 114.057,238.542 121.5,250.5C 117.824,259.943 120.824,266.443 130.5,270C 133.471,270.794 136.471,271.461 139.5,272C 157.366,290.342 179.032,297.175 204.5,292.5C 203.824,294.504 202.491,296.671 200.5,299C 201.759,299.923 203.092,300.757 204.5,301.5C 203.145,302.675 203.312,303.675 205,304.5C 205.333,304.167 205.667,303.833 206,303.5C 206.667,304.833 207.333,306.167 208,307.5C 208.805,305.099 209.638,305.266 210.5,308C 210.167,308.333 209.833,308.667 209.5,309C 211.737,311.989 213.737,314.489 215.5,316.5C 197.43,322.414 179.43,328.747 161.5,335.5C 161.33,334.178 161.663,333.011 162.5,332C 160.667,330.167 158.833,328.333 157,326.5C 155.334,327.34 155.167,326.84 156.5,325C 153.665,324.028 151.332,321.861 149.5,318.5C 150.855,317.325 150.688,316.325 149,315.5C 148.667,315.833 148.333,316.167 148,316.5C 146.939,313.438 145.106,310.938 142.5,309C 142.833,308.667 143.167,308.333 143.5,308C 138.267,303.824 134.434,298.991 132,293.5C 131.667,293.833 131.333,294.167 131,294.5C 129.425,291.74 127.591,289.073 125.5,286.5C 125.709,285.914 126.043,285.414 126.5,285C 124.578,284.61 122.578,283.61 120.5,282C 121.167,281.667 121.833,281.333 122.5,281C 121.035,278.201 118.868,276.035 116,274.5C 115.394,271.614 113.894,269.448 111.5,268C 111.833,267.667 112.167,267.333 112.5,267C 109.333,265.167 106.833,262.667 105,259.5C 105.046,261.313 104.88,262.979 104.5,264.5C 102.388,261.94 100.055,259.606 97.5,257.5C 106.914,240.337 116.58,223.337 126.5,206.5C 129.11,201.891 132.11,197.558 135.5,193.5 Z"/></g>
<g><path style="opacity:1" fill="#9d4100" d="M 454.5,241.5 C 453.367,257.156 452.367,272.823 451.5,288.5C 451.106,298.532 450.439,308.532 449.5,318.5C 434,327.084 419.334,336.917 405.5,348C 401.833,349.667 398.167,351.333 394.5,353C 376.638,357.311 358.638,360.977 340.5,364C 300.858,379.325 260.858,393.658 220.5,407C 161.434,425.433 102.101,442.933 42.5,459.5C 41.7877,433.488 41.121,407.488 40.5,381.5C 48.3111,380.798 55.9777,379.298 63.5,377C 103.319,361.236 144.652,352.236 187.5,350C 197.159,345.838 205.825,340.172 213.5,333C 264.001,310.091 316.001,291.091 369.5,276C 397.628,263.934 425.961,252.434 454.5,241.5 Z"/></g>
<g><path style="opacity:1" fill="#cd7d39" d="M 118.5,195.5 C 121.167,199.167 123.833,202.833 126.5,206.5C 116.58,223.337 106.914,240.337 97.5,257.5C 94.5314,263.777 91.1981,269.777 87.5,275.5C 86.7611,275.631 86.0944,275.464 85.5,275C 83.1466,272.025 80.8133,269.192 78.5,266.5C 90.5865,241.979 103.92,218.312 118.5,195.5 Z"/></g>
<g><path style="opacity:1" fill="#b39274" d="M 461.5,281.5 C 460.175,280.047 459.342,280.381 459,282.5C 458.309,280.109 457.309,280.109 456,282.5C 455.311,281.643 454.478,280.977 453.5,280.5C 452.832,283.306 452.166,285.972 451.5,288.5C 452.367,272.823 453.367,257.156 454.5,241.5C 455.583,241.539 456.583,241.873 457.5,242.5C 458.883,239.924 459.717,240.258 460,243.5C 461,242.5 462,241.5 463,240.5C 463.333,241.167 463.667,241.833 464,242.5C 464.013,255.551 463.18,268.551 461.5,281.5 Z"/></g>
<g><path style="opacity:1" fill="#f08e3a" d="M 97.5,257.5 C 100.055,259.606 102.388,261.94 104.5,264.5C 104.88,262.979 105.046,261.313 105,259.5C 106.833,262.667 109.333,265.167 112.5,267C 112.167,267.333 111.833,267.667 111.5,268C 113.894,269.448 115.394,271.614 116,274.5C 118.868,276.035 121.035,278.201 122.5,281C 121.833,281.333 121.167,281.667 120.5,282C 122.578,283.61 124.578,284.61 126.5,285C 126.043,285.414 125.709,285.914 125.5,286.5C 127.591,289.073 129.425,291.74 131,294.5C 131.333,294.167 131.667,293.833 132,293.5C 134.434,298.991 138.267,303.824 143.5,308C 143.167,308.333 142.833,308.667 142.5,309C 145.106,310.938 146.939,313.438 148,316.5C 148.333,316.167 148.667,315.833 149,315.5C 150.688,316.325 150.855,317.325 149.5,318.5C 151.332,321.861 153.665,324.028 156.5,325C 155.167,326.84 155.334,327.34 157,326.5C 158.833,328.333 160.667,330.167 162.5,332C 161.663,333.011 161.33,334.178 161.5,335.5C 149.517,339.912 137.183,342.912 124.5,344.5C 111.242,326.063 97.7422,307.729 84,289.5C 83.3292,288.748 82.4959,288.414 81.5,288.5C 83.7712,284.291 85.7712,279.958 87.5,275.5C 91.1981,269.777 94.5314,263.777 97.5,257.5 Z"/></g>
<g><path style="opacity:1" fill="#a2876f" d="M 467.5,219.5 C 468.167,219.5 468.5,219.833 468.5,220.5C 466.86,223.528 466.026,226.861 466,230.5C 465.333,237.167 465.333,243.833 466,250.5C 466.739,251.574 467.739,252.241 469,252.5C 471.242,252.391 473.409,252.058 475.5,251.5C 476.386,252.325 476.719,253.325 476.5,254.5C 475.833,264.833 475.167,275.167 474.5,285.5C 472.871,283.94 471.704,284.273 471,286.5C 470.692,285.692 470.192,285.025 469.5,284.5C 468.5,285.833 467.5,285.833 466.5,284.5C 465.808,285.025 465.308,285.692 465,286.5C 464.467,284.061 463.3,283.395 461.5,284.5C 461.5,283.5 461.5,282.5 461.5,281.5C 463.18,268.551 464.013,255.551 464,242.5C 463.667,241.833 463.333,241.167 463,240.5C 462,241.5 461,242.5 460,243.5C 459.717,240.258 458.883,239.924 457.5,242.5C 456.583,241.873 455.583,241.539 454.5,241.5C 454.472,236.138 454.806,230.805 455.5,225.5C 455.5,224.833 455.833,224.5 456.5,224.5C 460.624,223.601 464.291,221.934 467.5,219.5 Z"/></g>
<g><path style="opacity:1" fill="#b66626" d="M 277.5,247.5 C 278.923,252.87 278.756,258.203 277,263.5C 273.641,269.357 269.141,274.024 263.5,277.5C 250.796,283.119 237.463,285.953 223.5,286C 217.377,288.874 211.044,291.041 204.5,292.5C 179.032,297.175 157.366,290.342 139.5,272C 136.471,271.461 133.471,270.794 130.5,270C 120.824,266.443 117.824,259.943 121.5,250.5C 126.543,256.187 132.877,258.854 140.5,258.5C 141.167,258.833 141.833,259.167 142.5,259.5C 146.194,270.029 153.194,277.529 163.5,282C 181.928,288.034 200.262,287.867 218.5,281.5C 229.326,280.575 239.993,278.742 250.5,276C 264.89,271.447 273.89,261.947 277.5,247.5 Z"/></g>
<g><path style="opacity:1" fill="#f29241" d="M 81.5,288.5 C 82.4959,288.414 83.3292,288.748 84,289.5C 97.7422,307.729 111.242,326.063 124.5,344.5C 116.442,345.795 108.442,347.462 100.5,349.5C 90.8581,336.185 81.1914,322.852 71.5,309.5C 74.5629,302.374 77.8962,295.374 81.5,288.5 Z"/></g>
<g><path style="opacity:1" fill="#e98126" d="M 263.5,277.5 C 268.333,283.176 272.666,289.176 276.5,295.5C 257.128,305.099 236.795,312.099 215.5,316.5C 213.737,314.489 211.737,311.989 209.5,309C 209.833,308.667 210.167,308.333 210.5,308C 209.638,305.266 208.805,305.099 208,307.5C 207.333,306.167 206.667,304.833 206,303.5C 205.667,303.833 205.333,304.167 205,304.5C 203.312,303.675 203.145,302.675 204.5,301.5C 203.092,300.757 201.759,299.923 200.5,299C 202.491,296.671 203.824,294.504 204.5,292.5C 211.044,291.041 217.377,288.874 223.5,286C 237.463,285.953 250.796,283.119 263.5,277.5 Z"/></g>
<g><path style="opacity:1" fill="#b19880" d="M 474.5,285.5 C 472.783,297.391 471.783,309.391 471.5,321.5C 469.292,320.106 467.792,318.106 467,315.5C 466.026,317.878 465.359,317.544 465,314.5C 464.641,317.544 463.974,317.878 463,315.5C 462.465,317.271 461.631,317.604 460.5,316.5C 459.607,313.916 459.274,311.249 459.5,308.5C 459.837,300.471 460.504,292.471 461.5,284.5C 463.3,283.395 464.467,284.061 465,286.5C 465.308,285.692 465.808,285.025 466.5,284.5C 467.5,285.833 468.5,285.833 469.5,284.5C 470.192,285.025 470.692,285.692 471,286.5C 471.704,284.273 472.871,283.94 474.5,285.5 Z"/></g>
<g><path style="opacity:1" fill="#d28647" d="M 78.5,266.5 C 80.8133,269.192 83.1466,272.025 85.5,275C 86.0944,275.464 86.7611,275.631 87.5,275.5C 85.7712,279.958 83.7712,284.291 81.5,288.5C 77.8962,295.374 74.5629,302.374 71.5,309.5C 62.9263,323.926 54.093,338.259 45,352.5C 42.3405,356.474 40.8405,360.808 40.5,365.5C 36.8333,365.5 33.1667,365.5 29.5,365.5C 28.8333,365.167 28.1667,364.833 27.5,364.5C 27.9354,357.617 30.102,351.284 34,345.5C 50.5884,320.818 64.7551,294.652 76.5,267C 77.0944,266.536 77.7611,266.369 78.5,266.5 Z"/></g>
<g><path style="opacity:1" fill="#cbac8f" d="M 461.5,281.5 C 461.5,282.5 461.5,283.5 461.5,284.5C 460.504,292.471 459.837,300.471 459.5,308.5C 458.513,313.305 458.179,318.305 458.5,323.5C 457.766,322.122 457.099,320.622 456.5,319C 456.833,318.667 457.167,318.333 457.5,318C 456.448,316.881 455.281,316.381 454,316.5C 451.462,318.646 449.962,321.313 449.5,324.5C 449.5,322.5 449.5,320.5 449.5,318.5C 450.439,308.532 451.106,298.532 451.5,288.5C 452.166,285.972 452.832,283.306 453.5,280.5C 454.478,280.977 455.311,281.643 456,282.5C 457.309,280.109 458.309,280.109 459,282.5C 459.342,280.381 460.175,280.047 461.5,281.5 Z"/></g>
<g><path style="opacity:1" fill="#f49648" d="M 71.5,309.5 C 81.1914,322.852 90.8581,336.185 100.5,349.5C 81.4296,358.268 61.4296,363.601 40.5,365.5C 40.8405,360.808 42.3405,356.474 45,352.5C 54.093,338.259 62.9263,323.926 71.5,309.5 Z"/></g>
<g><path style="opacity:1" fill="#88400f" d="M 449.5,318.5 C 449.5,320.5 449.5,322.5 449.5,324.5C 449.184,329.844 448.684,335.178 448,340.5C 444.726,345.774 440.226,349.608 434.5,352C 423.402,356.229 412.402,360.395 401.5,364.5C 381.306,370.673 361.639,378.006 342.5,386.5C 319.149,395.172 295.483,402.839 271.5,409.5C 232.938,419.974 194.271,430.141 155.5,440C 133.026,447.602 110.359,454.602 87.5,461C 72.2786,464.806 56.9453,467.973 41.5,470.5C 41.5,467.167 41.5,463.833 41.5,460.5C 37.5568,461.486 33.5568,462.152 29.5,462.5C 31.0386,441.317 30.7052,420.317 28.5,399.5C 28.5,395.167 28.5,390.833 28.5,386.5C 28.3354,383.482 28.502,380.482 29,377.5C 32.3423,380.131 36.1756,381.464 40.5,381.5C 41.121,407.488 41.7877,433.488 42.5,459.5C 102.101,442.933 161.434,425.433 220.5,407C 260.858,393.658 300.858,379.325 340.5,364C 358.638,360.977 376.638,357.311 394.5,353C 398.167,351.333 401.833,349.667 405.5,348C 419.334,336.917 434,327.084 449.5,318.5 Z"/></g>
<g><path style="opacity:1" fill="#e5caab" d="M 458.5,323.5 C 458.666,329.509 458.499,335.509 458,341.5C 455.672,350.166 450.172,355.999 441.5,359C 434.831,361.279 428.164,363.446 421.5,365.5C 421.167,365.5 420.833,365.5 420.5,365.5C 418.81,364.897 417.31,363.897 416,362.5C 415.667,363.167 415.333,363.833 415,364.5C 410.472,363.231 405.972,363.231 401.5,364.5C 412.402,360.395 423.402,356.229 434.5,352C 440.226,349.608 444.726,345.774 448,340.5C 448.684,335.178 449.184,329.844 449.5,324.5C 449.962,321.313 451.462,318.646 454,316.5C 455.281,316.381 456.448,316.881 457.5,318C 457.167,318.333 456.833,318.667 456.5,319C 457.099,320.622 457.766,322.122 458.5,323.5 Z"/></g>
<g><path style="opacity:1" fill="#c4ad95" d="M 459.5,308.5 C 459.274,311.249 459.607,313.916 460.5,316.5C 461.631,317.604 462.465,317.271 463,315.5C 463.974,317.878 464.641,317.544 465,314.5C 465.359,317.544 466.026,317.878 467,315.5C 467.792,318.106 469.292,320.106 471.5,321.5C 476.628,348.29 466.294,365.29 440.5,372.5C 440.769,370.571 440.269,368.905 439,367.5C 437.667,367.5 436.333,367.5 435,367.5C 433.209,369.513 431.875,369.513 431,367.5C 430.026,369.878 429.359,369.544 429,366.5C 428.641,369.544 427.974,369.878 427,367.5C 426.667,368.167 426.333,368.833 426,369.5C 424.302,368.259 422.802,366.926 421.5,365.5C 428.164,363.446 434.831,361.279 441.5,359C 450.172,355.999 455.672,350.166 458,341.5C 458.499,335.509 458.666,329.509 458.5,323.5C 458.179,318.305 458.513,313.305 459.5,308.5 Z"/></g>
<g><path style="opacity:0.996" fill="#7a421c" d="M 27.5,364.5 C 28.1667,364.833 28.8333,365.167 29.5,365.5C 32.9619,366.482 36.6286,366.815 40.5,366.5C 39.9578,371.063 39.9578,376.063 40.5,381.5C 36.1756,381.464 32.3423,380.131 29,377.5C 28.502,380.482 28.3354,383.482 28.5,386.5C 27.8087,382.101 27.142,377.601 26.5,373C 26.6767,370.064 27.01,367.23 27.5,364.5 Z"/></g>
<g><path style="opacity:1" fill="#f1d6b8" d="M 420.5,365.5 C 402.308,371.452 384.308,377.785 366.5,384.5C 360.5,386.167 354.5,387.833 348.5,389.5C 346.609,388.464 344.776,388.464 343,389.5C 342.517,388.552 342.351,387.552 342.5,386.5C 361.639,378.006 381.306,370.673 401.5,364.5C 405.972,363.231 410.472,363.231 415,364.5C 415.333,363.833 415.667,363.167 416,362.5C 417.31,363.897 418.81,364.897 420.5,365.5 Z"/></g>
<g><path style="opacity:1" fill="#cdb8a1" d="M 420.5,365.5 C 420.833,365.5 421.167,365.5 421.5,365.5C 422.802,366.926 424.302,368.259 426,369.5C 426.333,368.833 426.667,368.167 427,367.5C 427.974,369.878 428.641,369.544 429,366.5C 429.359,369.544 430.026,369.878 431,367.5C 431.875,369.513 433.209,369.513 435,367.5C 436.333,367.5 437.667,367.5 439,367.5C 440.269,368.905 440.769,370.571 440.5,372.5C 426.579,377.363 412.579,382.029 398.5,386.5C 388.007,385.49 377.341,384.823 366.5,384.5C 384.308,377.785 402.308,371.452 420.5,365.5 Z"/></g>
<g><path style="opacity:1" fill="#c7af96" d="M 366.5,384.5 C 377.341,384.823 388.007,385.49 398.5,386.5C 390.144,389.146 381.311,392.48 372,396.5C 371.667,396.167 371.333,395.833 371,395.5C 365.35,398.096 359.85,400.096 354.5,401.5C 350.275,403.242 345.941,404.576 341.5,405.5C 338.52,405.62 335.687,406.287 333,407.5C 332.374,405.009 331.541,405.009 330.5,407.5C 328.259,406.36 326.092,406.36 324,407.5C 323.311,406.643 322.478,405.977 321.5,405.5C 320.575,406.641 319.741,406.641 319,405.5C 318.333,408.167 317.667,408.167 317,405.5C 316.333,408.167 315.667,408.167 315,405.5C 313.899,407.394 312.566,408.061 311,407.5C 309.89,405.963 308.39,405.297 306.5,405.5C 320.5,400.167 334.5,394.833 348.5,389.5C 354.5,387.833 360.5,386.167 366.5,384.5 Z"/></g>
<g><path style="opacity:1" fill="#e6c7a6" d="M 342.5,386.5 C 342.351,387.552 342.517,388.552 343,389.5C 344.776,388.464 346.609,388.464 348.5,389.5C 334.5,394.833 320.5,400.167 306.5,405.5C 297.925,408.248 289.258,410.582 280.5,412.5C 278.473,411.875 276.64,411.875 275,412.5C 273.691,410.109 272.691,410.109 272,412.5C 271.517,411.552 271.351,410.552 271.5,409.5C 295.483,402.839 319.149,395.172 342.5,386.5 Z"/></g>
<g><path style="opacity:1" fill="#bea388" d="M 306.5,405.5 C 308.39,405.297 309.89,405.963 311,407.5C 312.566,408.061 313.899,407.394 315,405.5C 315.667,408.167 316.333,408.167 317,405.5C 317.667,408.167 318.333,408.167 319,405.5C 319.741,406.641 320.575,406.641 321.5,405.5C 322.478,405.977 323.311,406.643 324,407.5C 326.092,406.36 328.259,406.36 330.5,407.5C 331.541,405.009 332.374,405.009 333,407.5C 335.687,406.287 338.52,405.62 341.5,405.5C 338.529,406.885 335.696,408.551 333,410.5C 332.586,410.043 332.086,409.709 331.5,409.5C 315.323,415.426 299.49,421.092 284,426.5C 283.586,426.043 283.086,425.709 282.5,425.5C 277.627,427.141 272.627,428.141 267.5,428.5C 264.606,428.958 262.106,428.291 260,426.5C 259.374,428.991 258.541,428.991 257.5,426.5C 257.167,427.167 256.833,427.833 256.5,428.5C 255.833,427.833 255.167,427.167 254.5,426.5C 252.622,426.623 250.789,426.623 249,426.5C 248.333,429.167 247.667,429.167 247,426.5C 245,429.167 243,429.167 241,426.5C 239.176,427.238 237.176,427.572 235,427.5C 234.333,424.833 233.667,424.833 233,427.5C 232.667,426.833 232.333,426.167 232,425.5C 230.285,429.066 228.119,429.399 225.5,426.5C 241.211,420.587 257.544,416.753 274.5,415C 276.611,414.155 278.611,413.322 280.5,412.5C 289.258,410.582 297.925,408.248 306.5,405.5 Z"/></g>
<g><path style="opacity:1" fill="#d4aa86" d="M 271.5,409.5 C 271.351,410.552 271.517,411.552 272,412.5C 272.691,410.109 273.691,410.109 275,412.5C 276.64,411.875 278.473,411.875 280.5,412.5C 278.611,413.322 276.611,414.155 274.5,415C 257.544,416.753 241.211,420.587 225.5,426.5C 165.363,447.617 103.697,462.617 40.5,471.5C 40.5,470.833 40.8333,470.5 41.5,470.5C 56.9453,467.973 72.2786,464.806 87.5,461C 110.359,454.602 133.026,447.602 155.5,440C 194.271,430.141 232.938,419.974 271.5,409.5 Z"/></g>
<g><path style="opacity:1" fill="#b39378" d="M 28.5,399.5 C 30.7052,420.317 31.0386,441.317 29.5,462.5C 28.7668,471.11 32.4335,474.11 40.5,471.5C 103.697,462.617 165.363,447.617 225.5,426.5C 228.119,429.399 230.285,429.066 232,425.5C 232.333,426.167 232.667,426.833 233,427.5C 233.667,424.833 234.333,424.833 235,427.5C 237.176,427.572 239.176,427.238 241,426.5C 243,429.167 245,429.167 247,426.5C 247.667,429.167 248.333,429.167 249,426.5C 250.789,426.623 252.622,426.623 254.5,426.5C 255.167,427.167 255.833,427.833 256.5,428.5C 256.833,427.833 257.167,427.167 257.5,426.5C 258.541,428.991 259.374,428.991 260,426.5C 262.106,428.291 264.606,428.958 267.5,428.5C 255.771,430.515 244.104,433.348 232.5,437C 228.308,438.276 224.474,440.109 221,442.5C 220.586,442.043 220.086,441.709 219.5,441.5C 214.755,442.913 209.922,444.913 205,447.5C 204.667,447.167 204.333,446.833 204,446.5C 200.829,447.536 197.829,448.87 195,450.5C 193.002,449.729 191.335,450.395 190,452.5C 187.911,452.255 185.911,452.255 184,452.5C 182.108,453.13 180.441,454.13 179,455.5C 178.667,455.167 178.333,454.833 178,454.5C 162.342,459.756 145.675,464.089 128,467.5C 123.579,468.522 119.245,469.856 115,471.5C 114.667,471.167 114.333,470.833 114,470.5C 109.786,471.337 105.786,472.67 102,474.5C 100.132,473.335 98.2982,473.668 96.5,475.5C 94.939,474.653 93.439,474.986 92,476.5C 88.2615,475.978 84.5948,476.645 81,478.5C 80.6667,478.167 80.3333,477.833 80,477.5C 65.7714,481.289 51.2714,483.956 36.5,485.5C 32.3911,485.562 29.8911,483.562 29,479.5C 28.5,452.835 28.3334,426.169 28.5,399.5 Z"/></g>
<g><path style="opacity:1" fill="#7c421b" d="M 41.5,470.5 C 40.8333,470.5 40.5,470.833 40.5,471.5C 32.4335,474.11 28.7668,471.11 29.5,462.5C 33.5568,462.152 37.5568,461.486 41.5,460.5C 41.5,463.833 41.5,467.167 41.5,470.5 Z"/></g>
</svg>
